<?xml version="1.0" encoding="utf-8"?>
<!-- Generator: Adobe Illustrator 19.0.0, SVG Export Plug-In . SVG Version: 6.00 Build 0)  -->
<svg version="1.2" baseProfile="tiny" id="Слой_1"
	 xmlns="http://www.w3.org/2000/svg" xmlns:xlink="http://www.w3.org/1999/xlink" x="0px" y="0px" viewBox="0 0 960 560"
	 xml:space="preserve">
<path id="XMLID_1286_" fill="#445996" d="M479.9,256.9c-12.4,0-22.5,10.1-22.5,22.5c0,12.5,10.1,22.5,22.5,22.5
	c12.5,0,22.5-10.1,22.5-22.5C502.5,267,492.4,256.9,479.9,256.9z M484.7,279.4h-3.2c0,5,0,11.3,0,11.3h-4.7c0,0,0-6.2,0-11.3h-2.2
	v-4h2.2v-2.6c0-1.8,0.9-4.7,4.7-4.7l3.5,0v3.9c0,0-2.1,0-2.5,0c-0.4,0-1,0.2-1,1.1v2.3h3.6L484.7,279.4z"/>
</svg>
