<?xml version="1.0" encoding="utf-8"?>
<!-- Generator: Adobe Illustrator 19.0.0, SVG Export Plug-In . SVG Version: 6.00 Build 0)  -->
<svg version="1.2" baseProfile="tiny" id="Слой_1"
	 xmlns="http://www.w3.org/2000/svg" xmlns:xlink="http://www.w3.org/1999/xlink" x="0px" y="0px" viewBox="0 0 79.5 81.8"
	 xml:space="preserve">
<g id="XMLID_2_">
	<circle id="XMLID_15_" fill="#E6F5FE" cx="39.9" cy="42.2" r="37.7"/>
	<path id="XMLID_19_" fill="#325897" d="M56.3,57.1c0.6-0.4,0.7-1.2,0.3-1.7L42.4,35.6c1.9-0.8,3.3-2.7,3.3-5c0-3-2.4-5.4-5.4-5.4
		c-3,0-5.4,2.4-5.4,5.4c0,2.3,1.4,4.2,3.4,5L23.5,55.7c-0.4,0.6-0.3,1.3,0.3,1.7c0.6,0.4,1.3,0.3,1.7-0.3l2.7-3.7l10.7,6.3l0,6.9
		c0,0.7,0.6,1.3,1.2,1.3c0,0,0,0,0,0c0.7,0,1.2-0.6,1.2-1.2l0-6.9l10.8-6.3l2.4,3.3C55,57.4,55.8,57.5,56.3,57.1z M34.9,44.4
		l4.1,2.5l0,3.5l-6-3.4L34.9,44.4z M44,42.1l-2.5,1.4l0-4.9L44,42.1z M39,43.9l-2.7-1.5l2.7-3.7L39,43.9z M41.5,46.5l4-2.3l1.9,2.6
		l-5.9,3.5L41.5,46.5z M37.3,30.6c0-1.6,1.3-2.9,2.9-2.9s2.9,1.3,2.9,2.9s-1.3,2.9-2.9,2.9C38.6,33.5,37.3,32.2,37.3,30.6z
		 M29.7,51.5l1.8-2.5l7.4,4.4l0,3.5L29.7,51.5z M41.5,56.9l0-3.7l7.4-4.3l1.9,2.7L41.5,56.9z"/>
	<path id="XMLID_4_" fill="#325897" d="M33.9,37.3c0.6,0.4,1.4,0.2,1.7-0.4c0.4-0.6,0.2-1.4-0.4-1.7c-3.1-2.1-3.5-7,0-9.3
		c0.6-0.4,0.7-1.2,0.4-1.7c-0.4-0.6-1.2-0.7-1.7-0.4C28.9,27.1,29.1,34.2,33.9,37.3z"/>
	<path id="XMLID_3_" fill="#325897" d="M30.4,41.2c0.6,0.4,1.4,0.2,1.7-0.4c0.4-0.6,0.2-1.4-0.4-1.7c-6-3.9-6.2-13,0-17
		c0.6-0.4,0.7-1.2,0.4-1.7c-0.4-0.6-1.2-0.7-1.7-0.4c-4.3,2.8-6.6,8-5.4,13.3C25.7,36.6,27.6,39.4,30.4,41.2z"/>
	<path id="XMLID_13_" fill="#325897" d="M45.3,25.9c3.5,2.3,3.2,7.2,0,9.3c-0.6,0.4-0.7,1.2-0.4,1.7c0.4,0.6,1.2,0.7,1.7,0.4
		c4.8-3.1,4.9-10.3,0-13.5c-0.6-0.4-1.4-0.2-1.7,0.4C44.5,24.8,44.7,25.6,45.3,25.9z"/>
	<path id="XMLID_14_" fill="#325897" d="M48.4,20.3c-0.4,0.6-0.2,1.4,0.4,1.7c6.2,4.1,6,13.1,0,17c-0.6,0.4-0.7,1.2-0.4,1.7
		c0.4,0.6,1.2,0.7,1.7,0.4c2.8-1.8,4.7-4.6,5.4-7.9c1.2-5.3-1.1-10.5-5.4-13.3C49.5,19.6,48.7,19.8,48.4,20.3z"/>
</g>
</svg>
